<svg viewBox="0 0 68 97" fill="none" xmlns="http://www.w3.org/2000/svg">
<path d="M64.6079 12.3495L34.0417 3.13379L3.47557 12.3495C3.47557 12.3495 3 15.7675 3 19.6182C3 31.776 4.55641 57.1733 19.8611 77.2056C26.8649 86.378 33.9985 92.7381 33.9985 92.7381C33.9985 92.7381 41.132 86.3347 48.1359 77.2056C63.4838 57.2166 64.997 31.776 64.997 19.6182C65.0402 15.7675 64.6079 12.3495 64.6079 12.3495Z" fill="#101F62"/>
<path fill-rule="evenodd" clip-rule="evenodd" d="M67.5841 11.9726L64.6079 12.3491L34.0417 3.13339L3.47557 12.3491L0.504192 11.9357L0.7691 10.0317L34.0417 0L67.3396 10.0393L67.5841 11.9726ZM33.9985 92.7377C33.9985 92.7377 26.8649 86.3776 19.8611 77.2051C4.55641 57.1729 3 31.7756 3 19.6178C3 15.7671 3.47557 12.3491 3.47557 12.3491C0.504192 11.9357 0.504227 11.9354 0.504192 11.9357L0.501829 11.9528L0.496844 11.9897C0.492685 12.0207 0.486893 12.0645 0.479703 12.1203C0.465326 12.232 0.44534 12.3919 0.421635 12.5943C0.374257 12.9987 0.311829 13.5743 0.249596 14.2735C0.125636 15.6663 0 17.5769 0 19.6178C0 31.9071 1.54107 58.1677 17.4772 79.0264C21.0698 83.7314 24.6876 87.7053 27.4046 90.5016C28.765 91.9018 29.9042 93.0115 30.7078 93.7752C31.1097 94.1572 31.4279 94.4529 31.6483 94.6554C31.7585 94.7567 31.8443 94.8347 31.9038 94.8886L31.9733 94.9512L31.9928 94.9687L32.0007 94.9758C32.001 94.976 32.002 94.977 33.9985 92.7377ZM67.997 19.6343C68.0191 17.601 67.9165 15.698 67.8098 14.3095C67.7561 13.6105 67.7008 13.0352 67.6584 12.6309C67.6372 12.4286 67.6193 12.2687 67.6063 12.1571C67.6031 12.1298 67.6002 12.1053 67.5977 12.0839C67.595 12.0615 67.5927 12.0424 67.5908 12.0266L67.5863 11.9898L67.5844 11.975L67.5843 11.9737C67.5842 11.9734 67.5841 11.9726 64.6079 12.3491C64.6079 12.3491 65.0402 15.7671 64.997 19.6178C64.997 31.7756 63.4838 57.2162 48.1359 77.2051C41.132 86.3343 33.9985 92.7377 33.9985 92.7377L32.002 94.977L34.0053 96.763L36.0025 94.9702L33.9985 92.7377C36.0025 94.9702 36.0022 94.9705 36.0025 94.9702L36.0038 94.9691L36.0309 94.9446L36.1 94.8818C36.1594 94.8278 36.2449 94.7495 36.3549 94.6479C36.5749 94.4446 36.8927 94.1477 37.2941 93.7644C38.0968 92.9981 39.2351 91.8852 40.5944 90.4833C43.3095 87.6834 46.9253 83.7116 50.5161 79.0312C66.4945 58.2203 67.9956 31.923 67.997 19.6343Z" fill="white"/>
<path d="M54.6647 13.5605C54.1027 13.5605 53.6271 13.9067 53.4542 14.4691L50.6007 23.2522H53.2812L55.8752 15.2479C56.1346 14.4259 55.5294 13.5605 54.6647 13.5605Z" fill="white"/>
<path d="M35.9877 13.7773H27.514L26.7358 16.157H32.6588L25.0496 21.2624C24.4876 21.6518 24.3579 22.4739 24.7902 22.993C25.1793 23.469 25.8711 23.5555 26.3467 23.2094L34.0422 18.0174L32.3561 23.2094H35.0366L37.4577 15.8109C37.8036 14.8157 37.0686 13.7773 35.9877 13.7773Z" fill="#13B5EA"/>
<path d="M15.1904 13.7773L12.1208 23.2526H14.8013L17.0927 16.157H22.6265L18.8652 18.7097C18.3032 19.0558 18.1303 19.8346 18.5194 20.3538C18.9085 20.9163 19.6434 21.0461 20.1622 20.6999L24.8315 17.5415C26.5176 16.4166 25.6961 13.8206 23.7074 13.8206L15.1904 13.7773Z" fill="white"/>
<path d="M49.1734 13.7773H40.6564L37.5868 23.2526H40.2673L42.5587 16.157H48.0926L43.2072 19.4452L46.2335 23.0363C46.6226 23.5122 47.3144 23.5988 47.7899 23.2526C48.3952 22.8632 48.4817 22.0412 48.0493 21.522L46.7091 19.9211L50.2975 17.4982C52.0268 16.3733 51.2054 13.7773 49.1734 13.7773Z" fill="white"/>
<path d="M55.9628 50.0338V39.8662L35.9024 53.4085V84.2141C37.9344 82.094 40.3987 79.325 42.9927 76.1233V53.9277H40.831L48.9157 48.4762V67.4701C51.9853 61.932 54.2766 55.9612 55.9628 50.0338Z" fill="#13B5EA"/>
<path d="M12.9866 52.8028C14.543 57.7352 16.575 62.7108 19.2122 67.4268V53.8845H17.0506L25.092 48.4762V76.1233C27.6428 79.325 30.1503 82.094 32.1823 84.2141V40.9911V39.8662L12.9866 52.8028Z" fill="#13B5EA"/>
<path d="M55.9628 26.6699L48.8724 28.7467V40.818L42.9927 44.7985V26.6699L35.9024 28.7467V53.4084L55.9628 39.8661V26.6699Z" fill="white"/>
<path d="M12.7269 52.0672C12.8134 52.3268 12.8998 52.5431 12.9431 52.8027L32.1388 39.8661V26.6699L25.0485 28.79V40.8612L19.1687 44.8417V26.6699L12.0784 28.79V50.0337C12.2946 50.6827 12.5107 51.3749 12.7269 52.0672Z" fill="white"/>
</svg>
