<svg viewBox="0 0 84 122" fill="none" xmlns="http://www.w3.org/2000/svg">
<path d="M83.4687 12.4858L42.0565 0L0.644319 12.4858C0.644319 12.4858 0 17.1167 0 22.3337C0 38.8056 2.10868 73.2148 22.8441 100.355C32.3331 112.782 41.9979 121.399 41.9979 121.399C41.9979 121.399 51.6627 112.724 61.1518 100.355C81.9458 73.2734 83.9959 38.8056 83.9959 22.3337C84.0545 17.1167 83.4687 12.4858 83.4687 12.4858Z" fill="white"/>
<path d="M69.996 14.127C69.2345 14.127 68.5902 14.5959 68.3559 15.3579L64.49 27.2576H68.1216L71.6361 16.4131C71.9875 15.2993 71.1675 14.127 69.996 14.127Z" fill="#081222"/>
<path d="M44.6928 14.4199H33.2122L32.1579 17.644H40.1826L29.8734 24.561C29.112 25.0885 28.9363 26.2023 29.522 26.9057C30.0492 27.5505 30.9864 27.6678 31.6307 27.1988L42.057 20.1646L39.7725 27.1988H43.4042L46.6843 17.175C47.1529 15.8268 46.1572 14.4199 44.6928 14.4199Z" fill="#081222"/>
<path d="M16.5187 14.4199L12.3599 27.2574H15.9915L19.0959 17.644H26.5935L21.4975 21.1025C20.736 21.5714 20.5017 22.6265 21.0289 23.33C21.5561 24.092 22.5518 24.2679 23.2547 23.7989L29.5808 19.5198C31.8652 17.9957 30.7523 14.4785 28.0578 14.4785L16.5187 14.4199Z" fill="#081222"/>
<path d="M62.5572 14.4199H51.018L46.8593 27.2574H50.4909L53.5953 17.644H61.0929L54.4739 22.099L58.5742 26.9643C59.1013 27.6091 60.0385 27.7264 60.6828 27.2574C61.5029 26.7299 61.62 25.6161 61.0343 24.9127L59.2185 22.7438L64.0802 19.4611C66.4231 17.937 65.3102 14.4199 62.5572 14.4199Z" fill="#081222"/>
<path d="M71.7544 63.543V49.7676L44.5758 68.1152V109.852C47.3288 106.979 50.6676 103.228 54.182 98.8901V68.8187H51.2533L62.2067 61.4327V87.1663C66.3655 79.6631 69.47 71.5737 71.7544 63.543Z" fill="#081222"/>
<path d="M13.5306 67.2946C15.6393 73.9771 18.3923 80.7183 21.9654 87.1077V68.7601H19.0366L29.9315 61.4327V98.8901C33.3874 103.228 36.7847 106.979 39.5377 109.852V51.2917V49.7676L13.5306 67.2946Z" fill="#081222"/>
<path fill-rule="evenodd" clip-rule="evenodd" d="M39.2867 50.4101L14.2867 67.9101L13.7133 67.0908L38.7133 49.5908L39.2867 50.4101Z" fill="#081222"/>
<path d="M71.7544 31.8877L62.1482 34.7014V51.056L54.182 56.4489V31.8877L44.5758 34.7014V68.1141L71.7544 49.7664V31.8877Z" fill="#081222"/>
<path d="M13.1788 66.2969C13.2959 66.6486 13.4131 66.9417 13.4717 67.2934L39.4788 49.7664V31.8877L29.8725 34.76V51.1146L21.9064 56.5076V31.8877L12.3002 34.76V63.5418C12.593 64.4211 12.8859 65.359 13.1788 66.2969Z" fill="#081222"/>
</svg>
